{
 "cells": [
  {
   "cell_type": "markdown",
   "metadata": {},
   "source": [
    "# Test our scripts locally"
   ]
  },
  {
   "cell_type": "markdown",
   "metadata": {},
   "source": [
    "In this tutorial, we have a pretrained style transfer model that is used on a video to apply style transfer to each frame of the video. \n",
    "\n",
    "In this notebook, we test each of our python scripts locally to see that they perform as intended. We will test the following:\n",
    "- `scripts/preprocess_video.py` - which splits up the video into individually frames\n",
    "- `scripts/style_transfer.py` - which applies the style transfer algorithm to each image\n",
    "- `scripts/postprocess_video.py` - which stitches the style transfered images back together\n",
    "\n",
    "The final video will have style transfer applied to each frame."
   ]
  },
  {
   "cell_type": "markdown",
   "metadata": {},
   "source": [
    "---"
   ]
  },
  {
   "cell_type": "markdown",
   "metadata": {},
   "source": [
    "Import torch which is used to detect gpu availability"
   ]
  },
  {
   "cell_type": "code",
   "execution_count": 1,
   "metadata": {},
   "outputs": [],
   "source": [
    "import torch "
   ]
  },
  {
   "cell_type": "markdown",
   "metadata": {},
   "source": [
    "A create a directory to perform the local testing in."
   ]
  },
  {
   "cell_type": "code",
   "execution_count": 2,
   "metadata": {},
   "outputs": [],
   "source": [
    "!mkdir local_test_orangutan"
   ]
  },
  {
   "cell_type": "markdown",
   "metadata": {},
   "source": [
    "Download a video to test with."
   ]
  },
  {
   "cell_type": "code",
   "execution_count": 3,
   "metadata": {},
   "outputs": [
    {
     "name": "stdout",
     "output_type": "stream",
     "text": [
      "--2019-01-30 04:33:04--  https://happypathspublic.blob.core.windows.net/videos/orangutan.mp4\n",
      "Resolving happypathspublic.blob.core.windows.net (happypathspublic.blob.core.windows.net)... 52.239.214.164\n",
      "Connecting to happypathspublic.blob.core.windows.net (happypathspublic.blob.core.windows.net)|52.239.214.164|:443... connected.\n",
      "HTTP request sent, awaiting response... 200 OK\n",
      "Length: 7961293 (7.6M) [video/mp4]\n",
      "Saving to: ‘orangutan.mp4’\n",
      "\n",
      "orangutan.mp4       100%[===================>]   7.59M  --.-KB/s    in 0.04s   \n",
      "\n",
      "2019-01-30 04:33:04 (187 MB/s) - ‘orangutan.mp4’ saved [7961293/7961293]\n",
      "\n"
     ]
    }
   ],
   "source": [
    "!wget https://happypathspublic.blob.core.windows.net/videos/orangutan.mp4"
   ]
  },
  {
   "cell_type": "markdown",
   "metadata": {},
   "source": [
    "Take a look at what the original video looks like:"
   ]
  },
  {
   "cell_type": "code",
   "execution_count": 4,
   "metadata": {},
   "outputs": [
    {
     "data": {
      "text/html": [
       "<video width=\"320\" height=\"240\" controls>\n",
       "  <source src=\"orangutan.mp4\" type=\"video/mp4\">\n",
       "</video>"
      ],
      "text/plain": [
       "<IPython.core.display.HTML object>"
      ]
     },
     "metadata": {},
     "output_type": "display_data"
    }
   ],
   "source": [
    "%%HTML\n",
    "<video width=\"320\" height=\"240\" controls>\n",
    "  <source src=\"orangutan.mp4\" type=\"video/mp4\">\n",
    "</video>"
   ]
  },
  {
   "cell_type": "markdown",
   "metadata": {},
   "source": [
    "### Testing the preprocessing script"
   ]
  },
  {
   "cell_type": "code",
   "execution_count": 5,
   "metadata": {},
   "outputs": [
    {
     "name": "stdout",
     "output_type": "stream",
     "text": [
      "ffmpeg version 4.0.2 Copyright (c) 2000-2018 the FFmpeg developers\n",
      "  built with gcc 4.8.2 (GCC) 20140120 (Red Hat 4.8.2-15)\n",
      "  configuration: --prefix=/home/jiata/anaconda3/envs/batchscoringdl_aml --disable-doc --disable-openssl --enable-shared --enable-static --extra-cflags='-Wall -g -m64 -pipe -O3 -march=x86-64 -fPIC' --extra-cxxflags='-Wall -g -m64 -pipe -O3 -march=x86-64 -fPIC' --extra-libs='-lpthread -lm -lz' --enable-zlib --enable-pic --enable-pthreads --enable-gpl --enable-version3 --enable-hardcoded-tables --enable-avresample --enable-libfreetype --enable-gnutls --enable-libx264 --enable-libopenh264\n",
      "  libavutil      56. 14.100 / 56. 14.100\n",
      "  libavcodec     58. 18.100 / 58. 18.100\n",
      "  libavformat    58. 12.100 / 58. 12.100\n",
      "  libavdevice    58.  3.100 / 58.  3.100\n",
      "  libavfilter     7. 16.100 /  7. 16.100\n",
      "  libavresample   4.  0.  0 /  4.  0.  0\n",
      "  libswscale      5.  1.100 /  5.  1.100\n",
      "  libswresample   3.  1.100 /  3.  1.100\n",
      "  libpostproc    55.  1.100 / 55.  1.100\n",
      "Input #0, mov,mp4,m4a,3gp,3g2,mj2, from 'orangutan.mp4':\n",
      "  Metadata:\n",
      "    major_brand     : isom\n",
      "    minor_version   : 512\n",
      "    compatible_brands: isomiso2avc1mp41\n",
      "    encoder         : Lavf58.12.100\n",
      "  Duration: 00:00:27.48, start: 0.000000, bitrate: 2317 kb/s\n",
      "    Stream #0:0(und): Video: h264 (High) (avc1 / 0x31637661), yuv420p, 720x720, 2242 kb/s, 30 fps, 30 tbr, 15360 tbn, 60 tbc (default)\n",
      "    Metadata:\n",
      "      handler_name    : VideoHandler\n",
      "    Stream #0:1(eng): Audio: aac (LC) (mp4a / 0x6134706D), 48000 Hz, mono, fltp, 69 kb/s (default)\n",
      "    Metadata:\n",
      "      handler_name    : SoundHandler\n",
      "Stream mapping:\n",
      "  Stream #0:1 -> #0:0 (aac (native) -> aac (native))\n",
      "Press [q] to stop, [?] for help\n",
      "Output #0, adts, to 'local_test_orangutan/audio.aac/audio.aac':\n",
      "  Metadata:\n",
      "    major_brand     : isom\n",
      "    minor_version   : 512\n",
      "    compatible_brands: isomiso2avc1mp41\n",
      "    encoder         : Lavf58.12.100\n",
      "    Stream #0:0(eng): Audio: aac (LC), 48000 Hz, mono, fltp, 69 kb/s (default)\n",
      "    Metadata:\n",
      "      handler_name    : SoundHandler\n",
      "      encoder         : Lavc58.18.100 aac\n",
      "size=     242kB time=00:00:27.45 bitrate=  72.2kbits/s speed= 158x    \n",
      "video:0kB audio:233kB subtitle:0kB other streams:0kB global headers:0kB muxing overhead: 3.777506%\n",
      "\u001b[1;36m[aac @ 0x17b5180] \u001b[0mQavg: 424.962\n",
      "Input #0, mov,mp4,m4a,3gp,3g2,mj2, from 'orangutan.mp4':\n",
      "  Metadata:\n",
      "    major_brand     : isom\n",
      "    minor_version   : 512\n",
      "    compatible_brands: isomiso2avc1mp41\n",
      "    encoder         : Lavf58.12.100\n",
      "  Duration: 00:00:27.48, start: 0.000000, bitrate: 2317 kb/s\n",
      "    Stream #0:0(und): Video: h264 (High) (avc1 / 0x31637661), yuv420p, 720x720, 2242 kb/s, 30 fps, 30 tbr, 15360 tbn, 60 tbc (default)\n",
      "    Metadata:\n",
      "      handler_name    : VideoHandler\n",
      "    Stream #0:1(eng): Audio: aac (LC) (mp4a / 0x6134706D), 48000 Hz, mono, fltp, 69 kb/s (default)\n",
      "    Metadata:\n",
      "      handler_name    : SoundHandler\n",
      "Stream mapping:\n",
      "  Stream #0:0 -> #0:0 (h264 (native) -> mjpeg (native))\n",
      "Press [q] to stop, [?] for help\n",
      "\u001b[1;34m[swscaler @ 0x23c6740] \u001b[0m\u001b[0;33mdeprecated pixel format used, make sure you did set range correctly\n",
      "\u001b[0mOutput #0, image2, to 'local_test_orangutan/input_frames/%05d_video.jpg':\n",
      "  Metadata:\n",
      "    major_brand     : isom\n",
      "    minor_version   : 512\n",
      "    compatible_brands: isomiso2avc1mp41\n",
      "    encoder         : Lavf58.12.100\n",
      "    Stream #0:0(und): Video: mjpeg, yuvj420p(pc), 720x720, q=2-31, 200 kb/s, 30 fps, 30 tbn, 30 tbc (default)\n",
      "    Metadata:\n",
      "      handler_name    : VideoHandler\n",
      "      encoder         : Lavc58.18.100 mjpeg\n",
      "    Side data:\n",
      "      cpb: bitrate max/min/avg: 0/0/200000 buffer size: 0 vbv_delay: -1\n",
      "frame=  823 fps=293 q=24.8 Lsize=N/A time=00:00:27.43 bitrate=N/A speed=9.78x    \n",
      "video:17559kB audio:0kB subtitle:0kB other streams:0kB global headers:0kB muxing overhead: unknown\n"
     ]
    }
   ],
   "source": [
    "!python scripts/preprocess_video.py \\\n",
    "    --input-video orangutan.mp4 \\\n",
    "    --output-audio local_test_orangutan/audio.aac \\\n",
    "    --output-images local_test_orangutan/input_frames"
   ]
  },
  {
   "cell_type": "markdown",
   "metadata": {},
   "source": [
    "### Testing the style transfer script"
   ]
  },
  {
   "cell_type": "markdown",
   "metadata": {},
   "source": [
    "Create a directory for output frames - frames that have been processed by the style transfer script."
   ]
  },
  {
   "cell_type": "code",
   "execution_count": 6,
   "metadata": {},
   "outputs": [],
   "source": [
    "!mkdir local_test_orangutan/output_frames"
   ]
  },
  {
   "cell_type": "markdown",
   "metadata": {},
   "source": [
    "Apply style transfer"
   ]
  },
  {
   "cell_type": "code",
   "execution_count": 7,
   "metadata": {},
   "outputs": [
    {
     "name": "stdout",
     "output_type": "stream",
     "text": [
      "Processing 00013_video.jpg\n",
      "/home/jiata/anaconda3/envs/batchscoringdl_aml/lib/python3.6/site-packages/torch/nn/modules/upsampling.py:122: UserWarning: nn.Upsampling is deprecated. Use nn.functional.interpolate instead.\n",
      "  warnings.warn(\"nn.Upsampling is deprecated. Use nn.functional.interpolate instead.\")\n",
      "Processing 00034_video.jpg\n",
      "Processing 00478_video.jpg\n",
      "Processing 00607_video.jpg\n",
      "Processing 00565_video.jpg\n",
      "Processing 00078_video.jpg\n",
      "Processing 00328_video.jpg\n",
      "Processing 00465_video.jpg\n",
      "Processing 00045_video.jpg\n",
      "Processing 00503_video.jpg\n",
      "Processing 00229_video.jpg\n",
      "Processing 00734_video.jpg\n",
      "Processing 00190_video.jpg\n",
      "Processing 00810_video.jpg\n",
      "Processing 00808_video.jpg\n",
      "Processing 00566_video.jpg\n",
      "Processing 00197_video.jpg\n",
      "Processing 00267_video.jpg\n",
      "Processing 00111_video.jpg\n",
      "Processing 00404_video.jpg\n",
      "Processing 00233_video.jpg\n",
      "Processing 00228_video.jpg\n",
      "Processing 00821_video.jpg\n",
      "Processing 00501_video.jpg\n",
      "Processing 00695_video.jpg\n",
      "Processing 00514_video.jpg\n",
      "Processing 00428_video.jpg\n",
      "Processing 00366_video.jpg\n",
      "Processing 00048_video.jpg\n",
      "Processing 00176_video.jpg\n",
      "Processing 00313_video.jpg\n",
      "Processing 00264_video.jpg\n",
      "Processing 00634_video.jpg\n",
      "Processing 00638_video.jpg\n",
      "Processing 00804_video.jpg\n",
      "Processing 00768_video.jpg\n",
      "Processing 00457_video.jpg\n",
      "Processing 00450_video.jpg\n",
      "Processing 00343_video.jpg\n",
      "Processing 00315_video.jpg\n",
      "Processing 00050_video.jpg\n",
      "Processing 00772_video.jpg\n",
      "Processing 00717_video.jpg\n",
      "Processing 00475_video.jpg\n",
      "Processing 00502_video.jpg\n",
      "Processing 00419_video.jpg\n",
      "Processing 00372_video.jpg\n",
      "Processing 00348_video.jpg\n",
      "Processing 00436_video.jpg\n",
      "Processing 00206_video.jpg\n",
      "Processing 00556_video.jpg\n",
      "Processing 00312_video.jpg\n",
      "Processing 00318_video.jpg\n",
      "Processing 00474_video.jpg\n",
      "Processing 00528_video.jpg\n",
      "Processing 00547_video.jpg\n",
      "Processing 00347_video.jpg\n",
      "Processing 00369_video.jpg\n",
      "Processing 00059_video.jpg\n",
      "Processing 00210_video.jpg\n",
      "Processing 00558_video.jpg\n",
      "Processing 00271_video.jpg\n",
      "Processing 00410_video.jpg\n",
      "Processing 00191_video.jpg\n",
      "Processing 00104_video.jpg\n",
      "Processing 00584_video.jpg\n",
      "Processing 00194_video.jpg\n",
      "Processing 00656_video.jpg\n",
      "Processing 00534_video.jpg\n",
      "Processing 00545_video.jpg\n",
      "Processing 00321_video.jpg\n",
      "Processing 00678_video.jpg\n",
      "Processing 00412_video.jpg\n",
      "Processing 00295_video.jpg\n",
      "Processing 00811_video.jpg\n",
      "Processing 00166_video.jpg\n",
      "Processing 00091_video.jpg\n",
      "Processing 00099_video.jpg\n",
      "Processing 00600_video.jpg\n",
      "Processing 00537_video.jpg\n",
      "Processing 00688_video.jpg\n",
      "Processing 00117_video.jpg\n",
      "Processing 00543_video.jpg\n",
      "Processing 00774_video.jpg\n",
      "Processing 00472_video.jpg\n",
      "Processing 00092_video.jpg\n",
      "Processing 00053_video.jpg\n",
      "Processing 00646_video.jpg\n",
      "Processing 00721_video.jpg\n",
      "Processing 00674_video.jpg\n",
      "Processing 00578_video.jpg\n",
      "Processing 00459_video.jpg\n",
      "Processing 00564_video.jpg\n",
      "Processing 00803_video.jpg\n",
      "Processing 00799_video.jpg\n",
      "Processing 00379_video.jpg\n",
      "Processing 00198_video.jpg\n",
      "Processing 00544_video.jpg\n",
      "Processing 00765_video.jpg\n",
      "Processing 00694_video.jpg\n",
      "Processing 00278_video.jpg\n",
      "Processing 00202_video.jpg\n",
      "Processing 00535_video.jpg\n",
      "Processing 00559_video.jpg\n",
      "Processing 00359_video.jpg\n",
      "Processing 00588_video.jpg\n",
      "Processing 00151_video.jpg\n",
      "Processing 00155_video.jpg\n",
      "Processing 00340_video.jpg\n",
      "Processing 00107_video.jpg\n",
      "Processing 00703_video.jpg\n",
      "Processing 00773_video.jpg\n",
      "Processing 00433_video.jpg\n",
      "Processing 00441_video.jpg\n",
      "Processing 00691_video.jpg\n",
      "Processing 00009_video.jpg\n",
      "Processing 00657_video.jpg\n",
      "Processing 00109_video.jpg\n",
      "Processing 00114_video.jpg\n",
      "Processing 00149_video.jpg\n",
      "Processing 00222_video.jpg\n",
      "Processing 00286_video.jpg\n",
      "Processing 00214_video.jpg\n",
      "Processing 00448_video.jpg\n",
      "Processing 00644_video.jpg\n",
      "Processing 00138_video.jpg\n",
      "Processing 00254_video.jpg\n",
      "Processing 00018_video.jpg\n",
      "Processing 00052_video.jpg\n",
      "Processing 00054_video.jpg\n",
      "Processing 00096_video.jpg\n",
      "Processing 00179_video.jpg\n",
      "Processing 00329_video.jpg\n",
      "Processing 00306_video.jpg\n",
      "Processing 00699_video.jpg\n",
      "Processing 00645_video.jpg\n",
      "Processing 00793_video.jpg\n",
      "Processing 00110_video.jpg\n",
      "Processing 00031_video.jpg\n",
      "Processing 00520_video.jpg\n",
      "Processing 00178_video.jpg\n",
      "Processing 00387_video.jpg\n",
      "Processing 00401_video.jpg\n",
      "Processing 00201_video.jpg\n",
      "Processing 00273_video.jpg\n",
      "Processing 00392_video.jpg\n",
      "Processing 00690_video.jpg\n",
      "Processing 00521_video.jpg\n",
      "Processing 00818_video.jpg\n",
      "Processing 00563_video.jpg\n",
      "Processing 00632_video.jpg\n",
      "Processing 00353_video.jpg\n",
      "Processing 00398_video.jpg\n",
      "Processing 00551_video.jpg\n",
      "Processing 00483_video.jpg\n",
      "Processing 00123_video.jpg\n",
      "Processing 00665_video.jpg\n",
      "Processing 00408_video.jpg\n",
      "Processing 00817_video.jpg\n",
      "Processing 00517_video.jpg\n",
      "Processing 00454_video.jpg\n",
      "Processing 00259_video.jpg\n",
      "Processing 00035_video.jpg\n",
      "Processing 00324_video.jpg\n",
      "Processing 00490_video.jpg\n",
      "Processing 00473_video.jpg\n",
      "Processing 00555_video.jpg\n",
      "Processing 00709_video.jpg\n",
      "Processing 00381_video.jpg\n",
      "Processing 00539_video.jpg\n",
      "Processing 00455_video.jpg\n",
      "Processing 00550_video.jpg\n",
      "Processing 00622_video.jpg\n",
      "Processing 00507_video.jpg\n",
      "Processing 00063_video.jpg\n",
      "Processing 00373_video.jpg\n",
      "Processing 00685_video.jpg\n",
      "Processing 00755_video.jpg\n",
      "Processing 00298_video.jpg\n",
      "Processing 00352_video.jpg\n",
      "Processing 00245_video.jpg\n",
      "Processing 00185_video.jpg\n",
      "Processing 00187_video.jpg\n",
      "Processing 00594_video.jpg\n",
      "Processing 00183_video.jpg\n",
      "Processing 00334_video.jpg\n",
      "Processing 00595_video.jpg\n",
      "Processing 00095_video.jpg\n",
      "Processing 00293_video.jpg\n",
      "Processing 00580_video.jpg\n",
      "Processing 00008_video.jpg\n",
      "Processing 00789_video.jpg\n",
      "Processing 00320_video.jpg\n",
      "Processing 00621_video.jpg\n",
      "Processing 00451_video.jpg\n",
      "Processing 00146_video.jpg\n",
      "Processing 00815_video.jpg\n",
      "Processing 00722_video.jpg\n",
      "Processing 00735_video.jpg\n",
      "Processing 00119_video.jpg\n",
      "Processing 00628_video.jpg\n",
      "Processing 00084_video.jpg\n",
      "Processing 00427_video.jpg\n",
      "Processing 00495_video.jpg\n",
      "Processing 00736_video.jpg\n",
      "Processing 00239_video.jpg\n",
      "Processing 00127_video.jpg\n",
      "Processing 00065_video.jpg\n",
      "Processing 00257_video.jpg\n",
      "Processing 00783_video.jpg\n",
      "Processing 00299_video.jpg\n",
      "Processing 00269_video.jpg\n",
      "Processing 00368_video.jpg\n",
      "Processing 00822_video.jpg\n",
      "Processing 00172_video.jpg\n",
      "Processing 00552_video.jpg\n",
      "Processing 00759_video.jpg\n",
      "Processing 00780_video.jpg\n",
      "Processing 00409_video.jpg\n",
      "Processing 00339_video.jpg\n",
      "Processing 00302_video.jpg\n",
      "Processing 00331_video.jpg\n",
      "Processing 00705_video.jpg\n",
      "Processing 00133_video.jpg\n",
      "Processing 00261_video.jpg\n",
      "Processing 00627_video.jpg\n",
      "Processing 00029_video.jpg\n",
      "Processing 00335_video.jpg\n",
      "Processing 00344_video.jpg\n",
      "Processing 00106_video.jpg\n",
      "Processing 00270_video.jpg\n",
      "Processing 00702_video.jpg\n",
      "Processing 00397_video.jpg\n",
      "Processing 00121_video.jpg\n",
      "Processing 00158_video.jpg\n",
      "Processing 00541_video.jpg\n",
      "Processing 00766_video.jpg\n",
      "Processing 00413_video.jpg\n",
      "Processing 00756_video.jpg\n",
      "Processing 00274_video.jpg\n",
      "Processing 00617_video.jpg\n",
      "Processing 00181_video.jpg\n",
      "Processing 00332_video.jpg\n",
      "Processing 00157_video.jpg\n",
      "Processing 00667_video.jpg\n",
      "Processing 00147_video.jpg\n",
      "Processing 00204_video.jpg\n",
      "Processing 00532_video.jpg\n",
      "Processing 00326_video.jpg\n",
      "Processing 00068_video.jpg\n",
      "Processing 00604_video.jpg\n",
      "Processing 00023_video.jpg\n",
      "Processing 00051_video.jpg\n",
      "Processing 00005_video.jpg\n",
      "Processing 00118_video.jpg\n",
      "Processing 00184_video.jpg\n",
      "Processing 00156_video.jpg\n",
      "Processing 00727_video.jpg\n",
      "Processing 00342_video.jpg\n",
      "Processing 00640_video.jpg\n",
      "Processing 00437_video.jpg\n",
      "Processing 00248_video.jpg\n",
      "Processing 00482_video.jpg\n",
      "Processing 00497_video.jpg\n",
      "Processing 00718_video.jpg\n",
      "Processing 00659_video.jpg\n",
      "Processing 00108_video.jpg\n",
      "Processing 00411_video.jpg\n",
      "Processing 00760_video.jpg\n",
      "Processing 00771_video.jpg\n",
      "Processing 00209_video.jpg\n",
      "Processing 00642_video.jpg\n",
      "Processing 00744_video.jpg\n",
      "Processing 00579_video.jpg\n",
      "Processing 00120_video.jpg\n",
      "Processing 00173_video.jpg\n",
      "Processing 00649_video.jpg\n",
      "Processing 00189_video.jpg\n",
      "Processing 00066_video.jpg\n",
      "Processing 00470_video.jpg\n",
      "Processing 00266_video.jpg\n",
      "Processing 00601_video.jpg\n",
      "Processing 00039_video.jpg\n",
      "Processing 00509_video.jpg\n",
      "Processing 00788_video.jpg\n",
      "Processing 00174_video.jpg\n",
      "Processing 00790_video.jpg\n",
      "Processing 00086_video.jpg\n",
      "Processing 00715_video.jpg\n",
      "Processing 00741_video.jpg\n",
      "Processing 00536_video.jpg\n",
      "Processing 00716_video.jpg\n",
      "Processing 00021_video.jpg\n",
      "Processing 00625_video.jpg\n"
     ]
    },
    {
     "name": "stdout",
     "output_type": "stream",
     "text": [
      "Processing 00044_video.jpg\n",
      "Processing 00325_video.jpg\n",
      "Processing 00296_video.jpg\n",
      "Processing 00417_video.jpg\n",
      "Processing 00499_video.jpg\n",
      "Processing 00806_video.jpg\n",
      "Processing 00414_video.jpg\n",
      "Processing 00618_video.jpg\n",
      "Processing 00683_video.jpg\n",
      "Processing 00582_video.jpg\n",
      "Processing 00599_video.jpg\n",
      "Processing 00449_video.jpg\n",
      "Processing 00164_video.jpg\n",
      "Processing 00681_video.jpg\n",
      "Processing 00025_video.jpg\n",
      "Processing 00723_video.jpg\n",
      "Processing 00687_video.jpg\n",
      "Processing 00679_video.jpg\n",
      "Processing 00042_video.jpg\n",
      "Processing 00265_video.jpg\n",
      "Processing 00243_video.jpg\n",
      "Processing 00609_video.jpg\n",
      "Processing 00101_video.jpg\n",
      "Processing 00237_video.jpg\n",
      "Processing 00212_video.jpg\n",
      "Processing 00823_video.jpg\n",
      "Processing 00586_video.jpg\n",
      "Processing 00094_video.jpg\n",
      "Processing 00462_video.jpg\n",
      "Processing 00283_video.jpg\n",
      "Processing 00493_video.jpg\n",
      "Processing 00165_video.jpg\n",
      "Processing 00336_video.jpg\n",
      "Processing 00010_video.jpg\n",
      "Processing 00153_video.jpg\n",
      "Processing 00439_video.jpg\n",
      "Processing 00669_video.jpg\n",
      "Processing 00113_video.jpg\n",
      "Processing 00598_video.jpg\n",
      "Processing 00355_video.jpg\n",
      "Processing 00662_video.jpg\n",
      "Processing 00105_video.jpg\n",
      "Processing 00585_video.jpg\n",
      "Processing 00724_video.jpg\n",
      "Processing 00671_video.jpg\n",
      "Processing 00075_video.jpg\n",
      "Processing 00223_video.jpg\n",
      "Processing 00613_video.jpg\n",
      "Processing 00792_video.jpg\n",
      "Processing 00553_video.jpg\n",
      "Processing 00282_video.jpg\n",
      "Processing 00071_video.jpg\n",
      "Processing 00378_video.jpg\n",
      "Processing 00571_video.jpg\n",
      "Processing 00349_video.jpg\n",
      "Processing 00581_video.jpg\n",
      "Processing 00468_video.jpg\n",
      "Processing 00707_video.jpg\n",
      "Processing 00794_video.jpg\n",
      "Processing 00152_video.jpg\n",
      "Processing 00739_video.jpg\n",
      "Processing 00614_video.jpg\n",
      "Processing 00028_video.jpg\n",
      "Processing 00032_video.jpg\n",
      "Processing 00365_video.jpg\n",
      "Processing 00004_video.jpg\n",
      "Processing 00162_video.jpg\n",
      "Processing 00467_video.jpg\n",
      "Processing 00279_video.jpg\n",
      "Processing 00623_video.jpg\n",
      "Processing 00250_video.jpg\n",
      "Processing 00020_video.jpg\n",
      "Processing 00253_video.jpg\n",
      "Processing 00651_video.jpg\n",
      "Processing 00346_video.jpg\n",
      "Processing 00424_video.jpg\n",
      "Processing 00689_video.jpg\n",
      "Processing 00504_video.jpg\n",
      "Processing 00330_video.jpg\n",
      "Processing 00421_video.jpg\n",
      "Processing 00012_video.jpg\n",
      "Processing 00641_video.jpg\n",
      "Processing 00215_video.jpg\n",
      "Processing 00128_video.jpg\n",
      "Processing 00112_video.jpg\n",
      "Processing 00175_video.jpg\n",
      "Processing 00303_video.jpg\n",
      "Processing 00364_video.jpg\n",
      "Processing 00725_video.jpg\n",
      "Processing 00729_video.jpg\n",
      "Processing 00244_video.jpg\n",
      "Processing 00139_video.jpg\n",
      "Processing 00452_video.jpg\n",
      "Processing 00737_video.jpg\n",
      "Processing 00142_video.jpg\n",
      "Processing 00560_video.jpg\n",
      "Processing 00280_video.jpg\n",
      "Processing 00393_video.jpg\n",
      "Processing 00570_video.jpg\n",
      "Processing 00529_video.jpg\n",
      "Processing 00203_video.jpg\n",
      "Processing 00776_video.jpg\n",
      "Processing 00126_video.jpg\n",
      "Processing 00713_video.jpg\n",
      "Processing 00415_video.jpg\n",
      "Processing 00572_video.jpg\n",
      "Processing 00218_video.jpg\n",
      "Processing 00492_video.jpg\n",
      "Processing 00232_video.jpg\n",
      "Processing 00784_video.jpg\n",
      "Processing 00661_video.jpg\n",
      "Processing 00748_video.jpg\n",
      "Processing 00076_video.jpg\n",
      "Processing 00785_video.jpg\n",
      "Processing 00515_video.jpg\n",
      "Processing 00006_video.jpg\n",
      "Processing 00360_video.jpg\n",
      "Processing 00664_video.jpg\n",
      "Processing 00208_video.jpg\n",
      "Processing 00055_video.jpg\n",
      "Processing 00469_video.jpg\n",
      "Processing 00777_video.jpg\n",
      "Processing 00022_video.jpg\n",
      "Processing 00301_video.jpg\n",
      "Processing 00069_video.jpg\n",
      "Processing 00374_video.jpg\n",
      "Processing 00367_video.jpg\n",
      "Processing 00322_video.jpg\n",
      "Processing 00024_video.jpg\n",
      "Processing 00192_video.jpg\n",
      "Processing 00036_video.jpg\n",
      "Processing 00327_video.jpg\n",
      "Processing 00460_video.jpg\n",
      "Processing 00291_video.jpg\n",
      "Processing 00064_video.jpg\n",
      "Processing 00574_video.jpg\n",
      "Processing 00129_video.jpg\n",
      "Processing 00458_video.jpg\n",
      "Processing 00077_video.jpg\n",
      "Processing 00217_video.jpg\n",
      "Processing 00505_video.jpg\n",
      "Processing 00170_video.jpg\n",
      "Processing 00726_video.jpg\n",
      "Processing 00590_video.jpg\n",
      "Processing 00047_video.jpg\n",
      "Processing 00268_video.jpg\n",
      "Processing 00801_video.jpg\n",
      "Processing 00700_video.jpg\n",
      "Processing 00300_video.jpg\n",
      "Processing 00711_video.jpg\n",
      "Processing 00338_video.jpg\n",
      "Processing 00252_video.jpg\n",
      "Processing 00500_video.jpg\n",
      "Processing 00577_video.jpg\n",
      "Processing 00684_video.jpg\n",
      "Processing 00361_video.jpg\n",
      "Processing 00629_video.jpg\n",
      "Processing 00704_video.jpg\n",
      "Processing 00749_video.jpg\n",
      "Processing 00728_video.jpg\n",
      "Processing 00354_video.jpg\n",
      "Processing 00740_video.jpg\n",
      "Processing 00160_video.jpg\n",
      "Processing 00591_video.jpg\n",
      "Processing 00058_video.jpg\n",
      "Processing 00812_video.jpg\n",
      "Processing 00276_video.jpg\n",
      "Processing 00292_video.jpg\n",
      "Processing 00602_video.jpg\n",
      "Processing 00399_video.jpg\n",
      "Processing 00444_video.jpg\n",
      "Processing 00742_video.jpg\n",
      "Processing 00743_video.jpg\n",
      "Processing 00676_video.jpg\n",
      "Processing 00573_video.jpg\n",
      "Processing 00494_video.jpg\n",
      "Processing 00767_video.jpg\n",
      "Processing 00382_video.jpg\n",
      "Processing 00308_video.jpg\n",
      "Processing 00073_video.jpg\n",
      "Processing 00205_video.jpg\n",
      "Processing 00363_video.jpg\n",
      "Processing 00043_video.jpg\n",
      "Processing 00486_video.jpg\n",
      "Processing 00631_video.jpg\n",
      "Processing 00260_video.jpg\n",
      "Processing 00708_video.jpg\n",
      "Processing 00390_video.jpg\n",
      "Processing 00447_video.jpg\n",
      "Processing 00506_video.jpg\n",
      "Processing 00530_video.jpg\n",
      "Processing 00648_video.jpg\n",
      "Processing 00098_video.jpg\n",
      "Processing 00019_video.jpg\n",
      "Processing 00200_video.jpg\n",
      "Processing 00816_video.jpg\n",
      "Processing 00230_video.jpg\n",
      "Processing 00161_video.jpg\n",
      "Processing 00762_video.jpg\n",
      "Processing 00732_video.jpg\n",
      "Processing 00476_video.jpg\n",
      "Processing 00516_video.jpg\n",
      "Processing 00251_video.jpg\n",
      "Processing 00116_video.jpg\n",
      "Processing 00323_video.jpg\n",
      "Processing 00477_video.jpg\n",
      "Processing 00255_video.jpg\n",
      "Processing 00731_video.jpg\n",
      "Processing 00575_video.jpg\n",
      "Processing 00103_video.jpg\n",
      "Processing 00568_video.jpg\n",
      "Processing 00193_video.jpg\n",
      "Processing 00608_video.jpg\n",
      "Processing 00130_video.jpg\n",
      "Processing 00085_video.jpg\n",
      "Processing 00238_video.jpg\n",
      "Processing 00714_video.jpg\n",
      "Processing 00554_video.jpg\n",
      "Processing 00056_video.jpg\n",
      "Processing 00481_video.jpg\n",
      "Processing 00287_video.jpg\n",
      "Processing 00611_video.jpg\n",
      "Processing 00289_video.jpg\n",
      "Processing 00297_video.jpg\n",
      "Processing 00686_video.jpg\n",
      "Processing 00420_video.jpg\n",
      "Processing 00389_video.jpg\n",
      "Processing 00807_video.jpg\n",
      "Processing 00487_video.jpg\n",
      "Processing 00358_video.jpg\n",
      "Processing 00677_video.jpg\n",
      "Processing 00757_video.jpg\n",
      "Processing 00786_video.jpg\n",
      "Processing 00626_video.jpg\n",
      "Processing 00814_video.jpg\n",
      "Processing 00384_video.jpg\n",
      "Processing 00603_video.jpg\n",
      "Processing 00087_video.jpg\n",
      "Processing 00484_video.jpg\n",
      "Processing 00464_video.jpg\n",
      "Processing 00027_video.jpg\n",
      "Processing 00485_video.jpg\n",
      "Processing 00150_video.jpg\n",
      "Processing 00438_video.jpg\n",
      "Processing 00680_video.jpg\n",
      "Processing 00636_video.jpg\n",
      "Processing 00698_video.jpg\n",
      "Processing 00610_video.jpg\n",
      "Processing 00775_video.jpg\n",
      "Processing 00488_video.jpg\n",
      "Processing 00275_video.jpg\n",
      "Processing 00220_video.jpg\n",
      "Processing 00234_video.jpg\n",
      "Processing 00778_video.jpg\n",
      "Processing 00576_video.jpg\n",
      "Processing 00249_video.jpg\n",
      "Processing 00443_video.jpg\n",
      "Processing 00663_video.jpg\n",
      "Processing 00819_video.jpg\n",
      "Processing 00074_video.jpg\n",
      "Processing 00216_video.jpg\n",
      "Processing 00557_video.jpg\n",
      "Processing 00583_video.jpg\n",
      "Processing 00802_video.jpg\n",
      "Processing 00124_video.jpg\n",
      "Processing 00567_video.jpg\n",
      "Processing 00797_video.jpg\n",
      "Processing 00333_video.jpg\n",
      "Processing 00195_video.jpg\n",
      "Processing 00168_video.jpg\n",
      "Processing 00533_video.jpg\n",
      "Processing 00038_video.jpg\n",
      "Processing 00653_video.jpg\n",
      "Processing 00030_video.jpg\n",
      "Processing 00519_video.jpg\n",
      "Processing 00093_video.jpg\n",
      "Processing 00615_video.jpg\n",
      "Processing 00258_video.jpg\n",
      "Processing 00518_video.jpg\n",
      "Processing 00386_video.jpg\n",
      "Processing 00706_video.jpg\n",
      "Processing 00666_video.jpg\n",
      "Processing 00592_video.jpg\n",
      "Processing 00102_video.jpg\n",
      "Processing 00480_video.jpg\n",
      "Processing 00403_video.jpg\n",
      "Processing 00720_video.jpg\n",
      "Processing 00088_video.jpg\n",
      "Processing 00548_video.jpg\n",
      "Processing 00294_video.jpg\n",
      "Processing 00523_video.jpg\n",
      "Processing 00430_video.jpg\n",
      "Processing 00795_video.jpg\n",
      "Processing 00079_video.jpg\n",
      "Processing 00527_video.jpg\n",
      "Processing 00696_video.jpg\n",
      "Processing 00658_video.jpg\n",
      "Processing 00668_video.jpg\n",
      "Processing 00262_video.jpg\n",
      "Processing 00371_video.jpg\n",
      "Processing 00562_video.jpg\n",
      "Processing 00796_video.jpg\n",
      "Processing 00011_video.jpg\n",
      "Processing 00236_video.jpg\n"
     ]
    },
    {
     "name": "stdout",
     "output_type": "stream",
     "text": [
      "Processing 00169_video.jpg\n",
      "Processing 00131_video.jpg\n",
      "Processing 00524_video.jpg\n",
      "Processing 00125_video.jpg\n",
      "Processing 00418_video.jpg\n",
      "Processing 00587_video.jpg\n",
      "Processing 00798_video.jpg\n",
      "Processing 00491_video.jpg\n",
      "Processing 00510_video.jpg\n",
      "Processing 00791_video.jpg\n",
      "Processing 00219_video.jpg\n",
      "Processing 00017_video.jpg\n",
      "Processing 00652_video.jpg\n",
      "Processing 00337_video.jpg\n",
      "Processing 00356_video.jpg\n",
      "Processing 00431_video.jpg\n",
      "Processing 00405_video.jpg\n",
      "Processing 00385_video.jpg\n",
      "Processing 00605_video.jpg\n",
      "Processing 00351_video.jpg\n",
      "Processing 00758_video.jpg\n",
      "Processing 00134_video.jpg\n",
      "Processing 00242_video.jpg\n",
      "Processing 00319_video.jpg\n",
      "Processing 00710_video.jpg\n",
      "Processing 00606_video.jpg\n",
      "Processing 00779_video.jpg\n",
      "Processing 00003_video.jpg\n",
      "Processing 00154_video.jpg\n",
      "Processing 00489_video.jpg\n",
      "Processing 00733_video.jpg\n",
      "Processing 00782_video.jpg\n",
      "Processing 00429_video.jpg\n",
      "Processing 00593_video.jpg\n",
      "Processing 00015_video.jpg\n",
      "Processing 00246_video.jpg\n",
      "Processing 00061_video.jpg\n",
      "Processing 00370_video.jpg\n",
      "Processing 00046_video.jpg\n",
      "Processing 00345_video.jpg\n",
      "Processing 00446_video.jpg\n",
      "Processing 00207_video.jpg\n",
      "Processing 00221_video.jpg\n",
      "Processing 00463_video.jpg\n",
      "Processing 00406_video.jpg\n",
      "Processing 00432_video.jpg\n",
      "Processing 00135_video.jpg\n",
      "Processing 00750_video.jpg\n",
      "Processing 00362_video.jpg\n",
      "Processing 00569_video.jpg\n",
      "Processing 00508_video.jpg\n",
      "Processing 00630_video.jpg\n",
      "Processing 00800_video.jpg\n",
      "Processing 00317_video.jpg\n",
      "Processing 00693_video.jpg\n",
      "Processing 00633_video.jpg\n",
      "Processing 00692_video.jpg\n",
      "Processing 00616_video.jpg\n",
      "Processing 00526_video.jpg\n",
      "Processing 00100_video.jpg\n",
      "Processing 00145_video.jpg\n",
      "Processing 00434_video.jpg\n",
      "Processing 00307_video.jpg\n",
      "Processing 00256_video.jpg\n",
      "Processing 00540_video.jpg\n",
      "Processing 00675_video.jpg\n",
      "Processing 00350_video.jpg\n",
      "Processing 00383_video.jpg\n",
      "Processing 00082_video.jpg\n",
      "Processing 00809_video.jpg\n",
      "Processing 00522_video.jpg\n",
      "Processing 00589_video.jpg\n",
      "Processing 00272_video.jpg\n",
      "Processing 00062_video.jpg\n",
      "Processing 00247_video.jpg\n",
      "Processing 00637_video.jpg\n",
      "Processing 00422_video.jpg\n",
      "Processing 00647_video.jpg\n",
      "Processing 00712_video.jpg\n",
      "Processing 00199_video.jpg\n",
      "Processing 00226_video.jpg\n",
      "Processing 00624_video.jpg\n",
      "Processing 00240_video.jpg\n",
      "Processing 00026_video.jpg\n",
      "Processing 00461_video.jpg\n",
      "Processing 00148_video.jpg\n",
      "Processing 00596_video.jpg\n",
      "Processing 00137_video.jpg\n",
      "Processing 00396_video.jpg\n",
      "Processing 00754_video.jpg\n",
      "Processing 00512_video.jpg\n",
      "Processing 00763_video.jpg\n",
      "Processing 00654_video.jpg\n",
      "Processing 00673_video.jpg\n",
      "Processing 00416_video.jpg\n",
      "Processing 00122_video.jpg\n",
      "Processing 00376_video.jpg\n",
      "Processing 00746_video.jpg\n",
      "Processing 00177_video.jpg\n",
      "Processing 00445_video.jpg\n",
      "Processing 00284_video.jpg\n",
      "Processing 00037_video.jpg\n",
      "Processing 00747_video.jpg\n",
      "Processing 00060_video.jpg\n",
      "Processing 00769_video.jpg\n",
      "Processing 00231_video.jpg\n",
      "Processing 00764_video.jpg\n",
      "Processing 00182_video.jpg\n",
      "Processing 00224_video.jpg\n",
      "Processing 00719_video.jpg\n",
      "Processing 00290_video.jpg\n",
      "Processing 00188_video.jpg\n",
      "Processing 00311_video.jpg\n",
      "Processing 00213_video.jpg\n",
      "Processing 00761_video.jpg\n",
      "Processing 00140_video.jpg\n",
      "Processing 00014_video.jpg\n",
      "Processing 00701_video.jpg\n",
      "Processing 00670_video.jpg\n",
      "Processing 00067_video.jpg\n",
      "Processing 00781_video.jpg\n",
      "Processing 00277_video.jpg\n",
      "Processing 00040_video.jpg\n",
      "Processing 00001_video.jpg\n",
      "Processing 00241_video.jpg\n",
      "Processing 00650_video.jpg\n",
      "Processing 00057_video.jpg\n",
      "Processing 00263_video.jpg\n",
      "Processing 00753_video.jpg\n",
      "Processing 00288_video.jpg\n",
      "Processing 00435_video.jpg\n",
      "Processing 00612_video.jpg\n",
      "Processing 00225_video.jpg\n",
      "Processing 00341_video.jpg\n",
      "Processing 00002_video.jpg\n",
      "Processing 00423_video.jpg\n",
      "Processing 00394_video.jpg\n",
      "Processing 00730_video.jpg\n",
      "Processing 00561_video.jpg\n",
      "Processing 00314_video.jpg\n",
      "Processing 00391_video.jpg\n",
      "Processing 00080_video.jpg\n",
      "Processing 00513_video.jpg\n",
      "Processing 00496_video.jpg\n",
      "Processing 00380_video.jpg\n",
      "Processing 00655_video.jpg\n",
      "Processing 00357_video.jpg\n",
      "Processing 00132_video.jpg\n",
      "Processing 00738_video.jpg\n",
      "Processing 00090_video.jpg\n",
      "Processing 00186_video.jpg\n",
      "Processing 00097_video.jpg\n",
      "Processing 00643_video.jpg\n",
      "Processing 00660_video.jpg\n",
      "Processing 00453_video.jpg\n",
      "Processing 00375_video.jpg\n",
      "Processing 00081_video.jpg\n",
      "Processing 00072_video.jpg\n",
      "Processing 00388_video.jpg\n",
      "Processing 00813_video.jpg\n",
      "Processing 00440_video.jpg\n",
      "Processing 00144_video.jpg\n",
      "Processing 00672_video.jpg\n",
      "Processing 00466_video.jpg\n",
      "Processing 00639_video.jpg\n",
      "Processing 00007_video.jpg\n",
      "Processing 00285_video.jpg\n",
      "Processing 00141_video.jpg\n",
      "Processing 00751_video.jpg\n",
      "Processing 00597_video.jpg\n",
      "Processing 00805_video.jpg\n",
      "Processing 00049_video.jpg\n",
      "Processing 00697_video.jpg\n",
      "Processing 00456_video.jpg\n",
      "Processing 00745_video.jpg\n",
      "Processing 00546_video.jpg\n",
      "Processing 00281_video.jpg\n",
      "Processing 00070_video.jpg\n",
      "Processing 00542_video.jpg\n",
      "Processing 00425_video.jpg\n",
      "Processing 00620_video.jpg\n",
      "Processing 00211_video.jpg\n",
      "Processing 00041_video.jpg\n",
      "Processing 00538_video.jpg\n",
      "Processing 00171_video.jpg\n",
      "Processing 00089_video.jpg\n",
      "Processing 00471_video.jpg\n",
      "Processing 00304_video.jpg\n",
      "Processing 00752_video.jpg\n",
      "Processing 00770_video.jpg\n",
      "Processing 00196_video.jpg\n",
      "Processing 00511_video.jpg\n",
      "Processing 00682_video.jpg\n",
      "Processing 00442_video.jpg\n",
      "Processing 00167_video.jpg\n",
      "Processing 00016_video.jpg\n",
      "Processing 00498_video.jpg\n",
      "Processing 00309_video.jpg\n",
      "Processing 00395_video.jpg\n",
      "Processing 00136_video.jpg\n",
      "Processing 00235_video.jpg\n",
      "Processing 00310_video.jpg\n",
      "Processing 00635_video.jpg\n",
      "Processing 00180_video.jpg\n",
      "Processing 00619_video.jpg\n",
      "Processing 00115_video.jpg\n",
      "Processing 00407_video.jpg\n",
      "Processing 00316_video.jpg\n",
      "Processing 00820_video.jpg\n",
      "Processing 00549_video.jpg\n",
      "Processing 00143_video.jpg\n",
      "Processing 00479_video.jpg\n",
      "Processing 00305_video.jpg\n",
      "Processing 00033_video.jpg\n",
      "Processing 00400_video.jpg\n",
      "Processing 00159_video.jpg\n",
      "Processing 00163_video.jpg\n",
      "Processing 00402_video.jpg\n",
      "Processing 00531_video.jpg\n",
      "Processing 00227_video.jpg\n",
      "Processing 00083_video.jpg\n",
      "Processing 00787_video.jpg\n",
      "Processing 00377_video.jpg\n",
      "Processing 00525_video.jpg\n",
      "Processing 00426_video.jpg\n"
     ]
    }
   ],
   "source": [
    "!python scripts/style_transfer.py \\\n",
    "    --model-dir models \\\n",
    "    --cuda {1 if torch.cuda.is_available() else 0} \\\n",
    "    --content-dir local_test_orangutan/input_frames \\\n",
    "    --output-dir local_test_orangutan/output_frames"
   ]
  },
  {
   "cell_type": "markdown",
   "metadata": {},
   "source": [
    "### Testing the postprocessing script"
   ]
  },
  {
   "cell_type": "markdown",
   "metadata": {},
   "source": [
    "The script will output a new video named `{video_name}_processed.mp4`."
   ]
  },
  {
   "cell_type": "code",
   "execution_count": 8,
   "metadata": {},
   "outputs": [
    {
     "name": "stdout",
     "output_type": "stream",
     "text": [
      "ffmpeg version 4.0.2 Copyright (c) 2000-2018 the FFmpeg developers\n",
      "  built with gcc 4.8.2 (GCC) 20140120 (Red Hat 4.8.2-15)\n",
      "  configuration: --prefix=/home/jiata/anaconda3/envs/batchscoringdl_aml --disable-doc --disable-openssl --enable-shared --enable-static --extra-cflags='-Wall -g -m64 -pipe -O3 -march=x86-64 -fPIC' --extra-cxxflags='-Wall -g -m64 -pipe -O3 -march=x86-64 -fPIC' --extra-libs='-lpthread -lm -lz' --enable-zlib --enable-pic --enable-pthreads --enable-gpl --enable-version3 --enable-hardcoded-tables --enable-avresample --enable-libfreetype --enable-gnutls --enable-libx264 --enable-libopenh264\n",
      "  libavutil      56. 14.100 / 56. 14.100\n",
      "  libavcodec     58. 18.100 / 58. 18.100\n",
      "  libavformat    58. 12.100 / 58. 12.100\n",
      "  libavdevice    58.  3.100 / 58.  3.100\n",
      "  libavfilter     7. 16.100 /  7. 16.100\n",
      "  libavresample   4.  0.  0 /  4.  0.  0\n",
      "  libswscale      5.  1.100 /  5.  1.100\n",
      "  libswresample   3.  1.100 /  3.  1.100\n",
      "  libpostproc    55.  1.100 / 55.  1.100\n",
      "Input #0, image2, from 'local_test_orangutan/output_frames/%05d_video.jpg':\n",
      "  Duration: 00:00:27.43, start: 0.000000, bitrate: N/A\n",
      "    Stream #0:0: Video: mjpeg, yuvj420p(pc, bt470bg/unknown/unknown), 720x720 [SAR 1:1 DAR 1:1], 30 fps, 30 tbr, 30 tbn, 30 tbc\n",
      "Stream mapping:\n",
      "  Stream #0:0 -> #0:0 (mjpeg (native) -> h264 (libx264))\n",
      "Press [q] to stop, [?] for help\n",
      "\u001b[1;34m[swscaler @ 0x164a440] \u001b[0m\u001b[0;33mdeprecated pixel format used, make sure you did set range correctly\n",
      "\u001b[0m\u001b[1;36m[libx264 @ 0x15c6d40] \u001b[0musing SAR=1/1\n",
      "\u001b[1;36m[libx264 @ 0x15c6d40] \u001b[0musing cpu capabilities: MMX2 SSE2Fast SSSE3 SSE4.2 AVX FMA3 BMI2 AVX2\n",
      "\u001b[1;36m[libx264 @ 0x15c6d40] \u001b[0mprofile High, level 3.1\n",
      "\u001b[1;36m[libx264 @ 0x15c6d40] \u001b[0m264 - core 152 - H.264/MPEG-4 AVC codec - Copyleft 2003-2017 - http://www.videolan.org/x264.html - options: cabac=1 ref=3 deblock=1:0:0 analyse=0x3:0x113 me=hex subme=7 psy=1 psy_rd=1.00:0.00 mixed_ref=1 me_range=16 chroma_me=1 trellis=1 8x8dct=1 cqm=0 deadzone=21,11 fast_pskip=1 chroma_qp_offset=-2 threads=9 lookahead_threads=1 sliced_threads=0 nr=0 decimate=1 interlaced=0 bluray_compat=0 constrained_intra=0 bframes=3 b_pyramid=2 b_adapt=1 b_bias=0 direct=1 weightb=1 open_gop=0 weightp=2 keyint=250 keyint_min=25 scenecut=40 intra_refresh=0 rc_lookahead=40 rc=crf mbtree=1 crf=20.0 qcomp=0.60 qpmin=0 qpmax=69 qpstep=4 ip_ratio=1.40 aq=1:1.00\n",
      "Output #0, mp4, to 'local_test_orangutan/video_without_audio.mp4':\n",
      "  Metadata:\n",
      "    encoder         : Lavf58.12.100\n",
      "    Stream #0:0: Video: h264 (libx264) (avc1 / 0x31637661), yuv420p, 720x720 [SAR 1:1 DAR 1:1], q=-1--1, 30 fps, 15360 tbn, 30 tbc\n",
      "    Metadata:\n",
      "      encoder         : Lavc58.18.100 libx264\n",
      "    Side data:\n",
      "      cpb: bitrate max/min/avg: 0/0/0 buffer size: 0 vbv_delay: -1\n",
      "frame=  823 fps= 50 q=-1.0 Lsize=   81525kB time=00:00:27.33 bitrate=24433.6kbits/s speed=1.67x    8x    \n",
      "video:81514kB audio:0kB subtitle:0kB other streams:0kB global headers:0kB muxing overhead: 0.013480%\n",
      "\u001b[1;36m[libx264 @ 0x15c6d40] \u001b[0mframe I:8     Avg QP:25.50  size:143834\n",
      "\u001b[1;36m[libx264 @ 0x15c6d40] \u001b[0mframe P:210   Avg QP:28.07  size:115876\n",
      "\u001b[1;36m[libx264 @ 0x15c6d40] \u001b[0mframe B:605   Avg QP:29.44  size: 95843\n",
      "\u001b[1;36m[libx264 @ 0x15c6d40] \u001b[0mconsecutive B-frames:  1.6%  0.7%  1.5% 96.2%\n",
      "\u001b[1;36m[libx264 @ 0x15c6d40] \u001b[0mmb I  I16..4:  0.1% 94.5%  5.4%\n",
      "\u001b[1;36m[libx264 @ 0x15c6d40] \u001b[0mmb P  I16..4:  0.1% 52.5% 14.1%  P16..4:  4.5% 14.3% 14.5%  0.0%  0.0%    skip: 0.0%\n",
      "\u001b[1;36m[libx264 @ 0x15c6d40] \u001b[0mmb B  I16..4:  0.2% 14.7% 17.8%  B16..8: 10.5% 29.5% 23.1%  direct: 3.8%  skip: 0.5%  L0:38.6% L1:27.1% BI:34.3%\n",
      "\u001b[1;36m[libx264 @ 0x15c6d40] \u001b[0m8x8 transform intra:59.8% inter:75.0%\n",
      "\u001b[1;36m[libx264 @ 0x15c6d40] \u001b[0mcoded y,uvDC,uvAC intra: 95.2% 99.2% 82.3% inter: 88.8% 92.2% 35.8%\n",
      "\u001b[1;36m[libx264 @ 0x15c6d40] \u001b[0mi16 v,h,dc,p: 28% 13%  7% 52%\n",
      "\u001b[1;36m[libx264 @ 0x15c6d40] \u001b[0mi8 v,h,dc,ddl,ddr,vr,hd,vl,hu: 15% 10% 23%  9% 10% 11%  6%  9%  8%\n",
      "\u001b[1;36m[libx264 @ 0x15c6d40] \u001b[0mi4 v,h,dc,ddl,ddr,vr,hd,vl,hu: 14% 10% 15% 10% 13% 11%  9% 11%  8%\n",
      "\u001b[1;36m[libx264 @ 0x15c6d40] \u001b[0mi8c dc,h,v,p: 43% 20% 24% 13%\n",
      "\u001b[1;36m[libx264 @ 0x15c6d40] \u001b[0mWeighted P-Frames: Y:3.3% UV:1.0%\n",
      "\u001b[1;36m[libx264 @ 0x15c6d40] \u001b[0mref P L0: 28.4% 16.7% 30.9% 23.5%  0.6%\n",
      "\u001b[1;36m[libx264 @ 0x15c6d40] \u001b[0mref B L0: 67.0% 24.7%  8.3%\n",
      "\u001b[1;36m[libx264 @ 0x15c6d40] \u001b[0mref B L1: 84.5% 15.5%\n",
      "\u001b[1;36m[libx264 @ 0x15c6d40] \u001b[0mkb/s:24341.14\n",
      "ffmpeg version 4.0.2 Copyright (c) 2000-2018 the FFmpeg developers\n",
      "  built with gcc 4.8.2 (GCC) 20140120 (Red Hat 4.8.2-15)\n",
      "  configuration: --prefix=/home/jiata/anaconda3/envs/batchscoringdl_aml --disable-doc --disable-openssl --enable-shared --enable-static --extra-cflags='-Wall -g -m64 -pipe -O3 -march=x86-64 -fPIC' --extra-cxxflags='-Wall -g -m64 -pipe -O3 -march=x86-64 -fPIC' --extra-libs='-lpthread -lm -lz' --enable-zlib --enable-pic --enable-pthreads --enable-gpl --enable-version3 --enable-hardcoded-tables --enable-avresample --enable-libfreetype --enable-gnutls --enable-libx264 --enable-libopenh264\n",
      "  libavutil      56. 14.100 / 56. 14.100\n",
      "  libavcodec     58. 18.100 / 58. 18.100\n",
      "  libavformat    58. 12.100 / 58. 12.100\n",
      "  libavdevice    58.  3.100 / 58.  3.100\n",
      "  libavfilter     7. 16.100 /  7. 16.100\n",
      "  libavresample   4.  0.  0 /  4.  0.  0\n",
      "  libswscale      5.  1.100 /  5.  1.100\n",
      "  libswresample   3.  1.100 /  3.  1.100\n",
      "  libpostproc    55.  1.100 / 55.  1.100\n",
      "Input #0, mov,mp4,m4a,3gp,3g2,mj2, from 'local_test_orangutan/video_without_audio.mp4':\n",
      "  Metadata:\n",
      "    major_brand     : isom\n",
      "    minor_version   : 512\n",
      "    compatible_brands: isomiso2avc1mp41\n",
      "    encoder         : Lavf58.12.100\n",
      "  Duration: 00:00:27.43, start: 0.000000, bitrate: 24344 kb/s\n",
      "    Stream #0:0(und): Video: h264 (High) (avc1 / 0x31637661), yuv420p, 720x720 [SAR 1:1 DAR 1:1], 24341 kb/s, 30 fps, 30 tbr, 15360 tbn, 60 tbc (default)\n",
      "    Metadata:\n",
      "      handler_name    : VideoHandler\n",
      "\u001b[0;35m[aac @ 0x1ca1380] \u001b[0m\u001b[0;33mEstimating duration from bitrate, this may be inaccurate\n",
      "\u001b[0mInput #1, aac, from 'local_test_orangutan/audio.aac/audio.aac':\n",
      "  Duration: 00:00:27.96, bitrate: 70 kb/s\n",
      "    Stream #1:0: Audio: aac (LC), 48000 Hz, mono, fltp, 70 kb/s\n",
      "Output #0, mp4, to 'local_test_orangutan/orangutan_processed.mp4':\n",
      "  Metadata:\n",
      "    major_brand     : isom\n",
      "    minor_version   : 512\n",
      "    compatible_brands: isomiso2avc1mp41\n",
      "    encoder         : Lavf58.12.100\n",
      "    Stream #0:0(und): Video: h264 (High) (avc1 / 0x31637661), yuv420p, 720x720 [SAR 1:1 DAR 1:1], q=2-31, 24341 kb/s, 30 fps, 30 tbr, 15360 tbn, 15360 tbc (default)\n",
      "    Metadata:\n",
      "      handler_name    : VideoHandler\n",
      "    Stream #0:1: Audio: aac (LC) (mp4a / 0x6134706D), 48000 Hz, mono, fltp, 70 kb/s\n",
      "Stream mapping:\n",
      "  Stream #0:0 -> #0:0 (copy)\n",
      "  Stream #1:0 -> #0:1 (copy)\n",
      "Press [q] to stop, [?] for help\n",
      "frame=  823 fps=0.0 q=-1.0 Lsize=   81778kB time=00:00:27.45 bitrate=24400.0kbits/s speed= 345x    \n",
      "video:81514kB audio:242kB subtitle:0kB other streams:0kB global headers:0kB muxing overhead: 0.026915%\n"
     ]
    }
   ],
   "source": [
    "!python scripts/postprocess_video.py \\\n",
    "    --images-dir local_test_orangutan/output_frames \\\n",
    "    --input-audio local_test_orangutan/audio.aac \\\n",
    "    --video orangutan \\\n",
    "    --output-dir local_test_orangutan"
   ]
  },
  {
   "cell_type": "markdown",
   "metadata": {},
   "source": [
    "### Check that the video output looks right"
   ]
  },
  {
   "cell_type": "code",
   "execution_count": 9,
   "metadata": {},
   "outputs": [
    {
     "data": {
      "text/html": [
       "<video width=\"320\" height=\"240\" controls>\n",
       "  <source src=\"local_test_orangutan/orangutan_processed.mp4\" type=\"video/mp4\">\n",
       "</video>"
      ],
      "text/plain": [
       "<IPython.core.display.HTML object>"
      ]
     },
     "metadata": {},
     "output_type": "display_data"
    }
   ],
   "source": [
    "%%HTML\n",
    "<video width=\"320\" height=\"240\" controls>\n",
    "  <source src=\"local_test_orangutan/orangutan_processed.mp4\" type=\"video/mp4\">\n",
    "</video>"
   ]
  },
  {
   "cell_type": "markdown",
   "metadata": {},
   "source": [
    "---"
   ]
  },
  {
   "cell_type": "markdown",
   "metadata": {},
   "source": [
    "You are now ready to move on to the [next notebook](02_setup_aml.ipynb)."
   ]
  }
 ],
 "metadata": {
  "kernelspec": {
   "display_name": "Python [conda env:batchscoringdl_aml]",
   "language": "python",
   "name": "conda-env-batchscoringdl_aml-py"
  },
  "language_info": {
   "codemirror_mode": {
    "name": "ipython",
    "version": 3
   },
   "file_extension": ".py",
   "mimetype": "text/x-python",
   "name": "python",
   "nbconvert_exporter": "python",
   "pygments_lexer": "ipython3",
   "version": "3.6.7"
  }
 },
 "nbformat": 4,
 "nbformat_minor": 2
}
